<mxfile host="Electron" agent="Mozilla/5.0 (Windows NT 10.0; Win64; x64) AppleWebKit/537.36 (KHTML, like Gecko) draw.io/27.0.9 Chrome/134.0.6998.205 Electron/35.4.0 Safari/537.36" version="27.0.9">
  <diagram name="Page-1" id="lRFh7G9jI9jC7OmhKAUN">
    <mxGraphModel dx="1348" dy="846" grid="1" gridSize="10" guides="1" tooltips="1" connect="1" arrows="1" fold="1" page="1" pageScale="1" pageWidth="1100" pageHeight="850" math="0" shadow="0">
      <root>
        <mxCell id="0" />
        <mxCell id="1" parent="0" />
        <mxCell id="JABpPGepNcM4n2xDcNPX-6" style="edgeStyle=orthogonalEdgeStyle;rounded=0;orthogonalLoop=1;jettySize=auto;html=1;exitX=0.5;exitY=1;exitDx=0;exitDy=0;entryX=0.5;entryY=0;entryDx=0;entryDy=0;" edge="1" parent="1" source="JABpPGepNcM4n2xDcNPX-2" target="JABpPGepNcM4n2xDcNPX-5">
          <mxGeometry relative="1" as="geometry" />
        </mxCell>
        <mxCell id="JABpPGepNcM4n2xDcNPX-2" value="Start Login RP_4" style="rounded=0;whiteSpace=wrap;html=1;" vertex="1" parent="1">
          <mxGeometry x="40" y="40" width="120" height="60" as="geometry" />
        </mxCell>
        <mxCell id="JABpPGepNcM4n2xDcNPX-10" value="" style="edgeStyle=orthogonalEdgeStyle;rounded=0;orthogonalLoop=1;jettySize=auto;html=1;" edge="1" parent="1" source="JABpPGepNcM4n2xDcNPX-5" target="JABpPGepNcM4n2xDcNPX-9">
          <mxGeometry relative="1" as="geometry" />
        </mxCell>
        <mxCell id="JABpPGepNcM4n2xDcNPX-5" value="sudo apt update &amp;amp;&amp;amp; sudo apt upgrade -y" style="rounded=0;whiteSpace=wrap;html=1;" vertex="1" parent="1">
          <mxGeometry x="40" y="230" width="120" height="80" as="geometry" />
        </mxCell>
        <mxCell id="JABpPGepNcM4n2xDcNPX-7" value="&lt;p style=&quot;white-space-collapse: preserve;&quot; dir=&quot;auto&quot;&gt;Update and Install System Dependencies&lt;/p&gt;" style="text;html=1;align=center;verticalAlign=middle;whiteSpace=wrap;rounded=0;" vertex="1" parent="1">
          <mxGeometry x="80" y="150" width="270" height="30" as="geometry" />
        </mxCell>
        <mxCell id="JABpPGepNcM4n2xDcNPX-8" value="&lt;p style=&quot;white-space-collapse: preserve;&quot; dir=&quot;auto&quot;&gt;Install Required Packages&lt;/p&gt;" style="text;html=1;align=center;verticalAlign=middle;whiteSpace=wrap;rounded=0;" vertex="1" parent="1">
          <mxGeometry x="50" y="360" width="250" height="30" as="geometry" />
        </mxCell>
        <mxCell id="JABpPGepNcM4n2xDcNPX-13" value="" style="edgeStyle=orthogonalEdgeStyle;rounded=0;orthogonalLoop=1;jettySize=auto;html=1;" edge="1" parent="1" source="JABpPGepNcM4n2xDcNPX-9" target="JABpPGepNcM4n2xDcNPX-12">
          <mxGeometry relative="1" as="geometry" />
        </mxCell>
        <mxCell id="JABpPGepNcM4n2xDcNPX-9" value="sudo apt install -y python3 python3-pip python3-venv gpsd gpsd-clients libgps-dev" style="rounded=0;whiteSpace=wrap;html=1;" vertex="1" parent="1">
          <mxGeometry x="40" y="430" width="120" height="85" as="geometry" />
        </mxCell>
        <mxCell id="JABpPGepNcM4n2xDcNPX-11" value="&lt;p style=&quot;white-space-collapse: preserve;&quot; dir=&quot;auto&quot;&gt;Create Virtual Environment&lt;/p&gt;" style="text;html=1;align=center;verticalAlign=middle;whiteSpace=wrap;rounded=0;" vertex="1" parent="1">
          <mxGeometry x="95" y="550" width="160" height="30" as="geometry" />
        </mxCell>
        <mxCell id="JABpPGepNcM4n2xDcNPX-17" style="edgeStyle=orthogonalEdgeStyle;rounded=0;orthogonalLoop=1;jettySize=auto;html=1;entryX=0;entryY=0.5;entryDx=0;entryDy=0;" edge="1" parent="1" source="JABpPGepNcM4n2xDcNPX-12" target="JABpPGepNcM4n2xDcNPX-15">
          <mxGeometry relative="1" as="geometry" />
        </mxCell>
        <mxCell id="JABpPGepNcM4n2xDcNPX-12" value="python3 -m venv /home/pi/gps_venv" style="rounded=0;whiteSpace=wrap;html=1;" vertex="1" parent="1">
          <mxGeometry x="40" y="620" width="120" height="60" as="geometry" />
        </mxCell>
        <mxCell id="JABpPGepNcM4n2xDcNPX-14" value="&lt;p style=&quot;white-space-collapse: preserve;&quot; dir=&quot;auto&quot;&gt;Activate Virtual Environment&lt;/p&gt;" style="text;html=1;align=center;verticalAlign=middle;whiteSpace=wrap;rounded=0;" vertex="1" parent="1">
          <mxGeometry x="200" y="650" width="200" height="30" as="geometry" />
        </mxCell>
        <mxCell id="JABpPGepNcM4n2xDcNPX-21" style="edgeStyle=orthogonalEdgeStyle;rounded=0;orthogonalLoop=1;jettySize=auto;html=1;exitX=0.5;exitY=0;exitDx=0;exitDy=0;entryX=0.5;entryY=1;entryDx=0;entryDy=0;" edge="1" parent="1" source="JABpPGepNcM4n2xDcNPX-15" target="JABpPGepNcM4n2xDcNPX-20">
          <mxGeometry relative="1" as="geometry" />
        </mxCell>
        <mxCell id="JABpPGepNcM4n2xDcNPX-15" value="source /home/pi/gps_venv/bin/activate" style="rounded=0;whiteSpace=wrap;html=1;" vertex="1" parent="1">
          <mxGeometry x="440" y="610" width="190" height="80" as="geometry" />
        </mxCell>
        <mxCell id="JABpPGepNcM4n2xDcNPX-19" value="&lt;p style=&quot;white-space-collapse: preserve;&quot; dir=&quot;auto&quot;&gt;Upgrade pip&lt;/p&gt;" style="text;html=1;align=center;verticalAlign=middle;whiteSpace=wrap;rounded=0;" vertex="1" parent="1">
          <mxGeometry x="530" y="530" width="80" height="30" as="geometry" />
        </mxCell>
        <mxCell id="JABpPGepNcM4n2xDcNPX-25" style="edgeStyle=orthogonalEdgeStyle;rounded=0;orthogonalLoop=1;jettySize=auto;html=1;exitX=0.5;exitY=0;exitDx=0;exitDy=0;" edge="1" parent="1" source="JABpPGepNcM4n2xDcNPX-20">
          <mxGeometry relative="1" as="geometry">
            <mxPoint x="535" y="320" as="targetPoint" />
          </mxGeometry>
        </mxCell>
        <mxCell id="JABpPGepNcM4n2xDcNPX-20" value="pip install --upgrade pip" style="rounded=0;whiteSpace=wrap;html=1;" vertex="1" parent="1">
          <mxGeometry x="475" y="430" width="120" height="60" as="geometry" />
        </mxCell>
        <mxCell id="JABpPGepNcM4n2xDcNPX-22" value="&lt;p style=&quot;white-space-collapse: preserve;&quot; dir=&quot;auto&quot;&gt;Install Python Dependencies&lt;/p&gt;" style="text;html=1;align=center;verticalAlign=middle;whiteSpace=wrap;rounded=0;" vertex="1" parent="1">
          <mxGeometry x="513" y="360" width="200" height="30" as="geometry" />
        </mxCell>
        <mxCell id="JABpPGepNcM4n2xDcNPX-23" value="pip install gps3 websocket-client websockets aiohttp pytz" style="rounded=0;whiteSpace=wrap;html=1;" vertex="1" parent="1">
          <mxGeometry x="470" y="250" width="120" height="60" as="geometry" />
        </mxCell>
      </root>
    </mxGraphModel>
  </diagram>
</mxfile>
